<svg width="44" height="44" viewBox="0 0 44 44" fill="none" xmlns="http://www.w3.org/2000/svg"><rect width="44" height="44" rx="22" fill="#F4F7FA"/><path d="M22.0001 8.54175C18.4307 8.54175 15.0075 9.95968 12.4836 12.4836C9.95968 15.0075 8.54175 18.4307 8.54175 22.0001C8.54175 25.5695 9.95968 28.9926 12.4836 31.5166C15.0075 34.0405 18.4307 35.4584 22.0001 35.4584C25.5695 35.4584 28.9926 34.0405 31.5166 31.5166C34.0405 28.9926 35.4584 25.5695 35.4584 22.0001C35.4584 18.4307 34.0405 15.0075 31.5166 12.4836C28.9926 9.95968 25.5695 8.54175 22.0001 8.54175Z" fill="#039BE5"/><path d="M23.8218 25.5672H27.3046L27.8515 22.0291H23.8211V20.0953C23.8211 18.6255 24.3013 17.3222 25.6762 17.3222H27.8855V14.2345C27.4973 14.1821 26.6764 14.0674 25.1251 14.0674C21.8859 14.0674 19.9869 15.778 19.9869 19.6753V22.0291H16.657V25.5672H19.9869V35.2919C20.6463 35.3911 21.3143 35.4583 21.9999 35.4583C22.6197 35.4583 23.2246 35.4017 23.8218 35.3209V25.5672Z" fill="white"/></svg>