<svg width="44" height="44" viewBox="0 0 44 44" fill="none" xmlns="http://www.w3.org/2000/svg"><rect width="44" height="44" rx="22" fill="#F4F7FA"/><path d="M32.6227 19.8784H31.7501V19.8334H22.0001V24.1667H28.1225C27.2293 26.6893 24.8292 28.5001 22.0001 28.5001C18.4105 28.5001 15.5001 25.5897 15.5001 22.0001C15.5001 18.4105 18.4105 15.5001 22.0001 15.5001C23.657 15.5001 25.1645 16.1252 26.3123 17.1462L29.3765 14.082C27.4417 12.2788 24.8536 11.1667 22.0001 11.1667C16.0174 11.1667 11.1667 16.0174 11.1667 22.0001C11.1667 27.9828 16.0174 32.8334 22.0001 32.8334C27.9828 32.8334 32.8334 27.9828 32.8334 22.0001C32.8334 21.2737 32.7587 20.5647 32.6227 19.8784Z" fill="#FBC02D"/><path d="M12.4158 16.9577L15.9751 19.568C16.9381 17.1836 19.2706 15.5001 22 15.5001C23.657 15.5001 25.1644 16.1252 26.3122 17.1462L29.3764 14.082C27.4416 12.2788 24.8535 11.1667 22 11.1667C17.8389 11.1667 14.2304 13.516 12.4158 16.9577Z" fill="#E53935"/><path d="M22.0001 32.8332C24.7983 32.8332 27.3409 31.7623 29.2633 30.0209L25.9104 27.1836C24.8227 28.0075 23.4707 28.4999 22.0001 28.4999C19.1823 28.4999 16.7898 26.7032 15.8885 24.1958L12.3557 26.9177C14.1486 30.426 17.7897 32.8332 22.0001 32.8332Z" fill="#4CAF50"/><path d="M32.6226 19.8782L32.614 19.8333H31.75H22V24.1666H28.1225C27.6935 25.3783 26.914 26.4232 25.9087 27.1842L25.9103 27.1831L29.2632 30.0204C29.026 30.236 32.8333 27.4166 32.8333 21.9999C32.8333 21.2735 32.7586 20.5645 32.6226 19.8782Z" fill="#1565C0"/></svg>